<?xml version="1.0" encoding="UTF-8"?>
<svg width="1920px" height="1080px" viewBox="0 0 1920 1080" version="1.1" xmlns="http://www.w3.org/2000/svg" xmlns:xlink="http://www.w3.org/1999/xlink">
    <!-- Generator: Sketch 53.2 (72643) - https://sketchapp.com -->
    <title>DD_05</title>
    <desc>Created with Sketch.</desc>
    <defs>
        <circle id="path-1" cx="1488" cy="537" r="12"></circle>
    </defs>
    <g id="DD_05" stroke="none" stroke-width="1" fill="none" fill-rule="evenodd">
        <rect fill="#FFFFFF" x="0" y="0" width="1920" height="1080"></rect>
        <g id="main_structure_frame" transform="translate(34.000000, 90.000000)">
            <g id="line_Grid" transform="translate(26.000000, 0.000000)" stroke="#979797" stroke-linecap="square" stroke-width="2">
                <path d="M900,0 L900,830" id="Line" opacity="0.25"></path>
                <path d="M550,70 L550,830" id="Line" opacity="0.25"></path>
                <path d="M1250,70 L1250,830" id="Line" opacity="0.25"></path>
                <path d="M1603,0 L1603,830" id="Line"></path>
                <path d="M197,0 L197,830" id="Line"></path>
                <path d="M100,447 L1700,447" id="Line" opacity="0.25"></path>
                <path d="M-1.13686838e-13,94 L1800,94" id="Line"></path>
                <path d="M-1.13686838e-13,800 L1800,800" id="Line"></path>
            </g>
            <g id="A_B" transform="translate(131.000000, 449.000000)"></g>
            <g id="Top_Labels" transform="translate(0.000000, 4.000000)" fill="#979797" font-size="26">
                <g id="Label_Left" transform="translate(0.000000, 48.000000)" font-family="Roboto-Regular, Roboto" font-weight="normal">
                    <text id="Activitiy">
                        <tspan x="85.6191406" y="24">Activitiy</tspan>
                    </text>
                    <text id="Phase">
                        <tspan x="104.954102" y="87">Phase</tspan>
                    </text>
                </g>
                <g id="Lower_Added_Naming" transform="translate(220.000000, 111.000000)" font-family="Roboto-Regular, Roboto" font-weight="normal">
                    <text id="Ideation">
                        <tspan x="836.186035" y="24">Ideation</tspan>
                    </text>
                    <text id="Implementation">
                        <tspan x="1143.97461" y="24">Implementation</tspan>
                    </text>
                    <text id="Research">
                        <tspan x="123.203613" y="24">Research</tspan>
                    </text>
                    <text id="Synthesis">
                        <tspan x="473.108887" y="24">Synthesis</tspan>
                    </text>
                </g>
                <g id="Upper_Council_Naming" transform="translate(220.000000, 48.000000)" font-family="Roboto-Regular, Roboto" font-weight="normal">
                    <text id="Develop">
                        <tspan x="836.706543" y="24">Develop</tspan>
                    </text>
                    <text id="Deliver">
                        <tspan x="1195.77783" y="24">Deliver</tspan>
                    </text>
                    <text id="Discover">
                        <tspan x="126.993164" y="24">Discover</tspan>
                    </text>
                    <text id="Discover">
                        <tspan x="492.32959" y="24">Define</tspan>
                    </text>
                </g>
                <g id="Arch_Phases" transform="translate(235.000000, 0.000000)" font-family="Roboto-Bold, Roboto" font-weight="bold">
                    <text id="DESIGNING-THINGS-RIG">
                        <tspan x="885.47998" y="24">DESIGNING THINGS RIGHT</tspan>
                    </text>
                    <text id="DESIGNING-THE-RIGHT-">
                        <tspan x="159.956055" y="24">DESIGNING THE RIGHT THING</tspan>
                    </text>
                </g>
            </g>
        </g>
        <polygon id="Path" stroke="#979797" stroke-width="4" opacity="0.25" points="260 537 610 187 1310 887 1660 537 1310 187 610 887"></polygon>
        <g id="Diamond_2" transform="translate(957.000000, 185.000000)">
            <g id="framing"></g>
        </g>
        <g id="Diamond_1" transform="translate(257.000000, 185.000000)">
            <g id="framing"></g>
        </g>
        <rect id="Rectangle" stroke="#979797" stroke-width="4" fill="#FFFFFF" x="257" y="952" width="1052" height="64"></rect>
        <rect id="Rectangle" stroke="#979797" stroke-width="4" fill="#FFFFFF" transform="translate(1486.000000, 984.000000) scale(-1, 1) translate(-1486.000000, -984.000000) " x="1309" y="952" width="354" height="64"></rect>
        <text id="IDENTIFY-THE-PROBLEM" font-family="Roboto-Bold, Roboto" font-size="26" font-weight="bold" fill="#979797">
            <tspan x="460.975586" y="993">IDENTIFY THE PROBLEM AND THE DESIRED OUTCOME</tspan>
        </text>
        <text id="DEVELOP-THE-PRODUCT" font-family="Roboto-Bold, Roboto" font-size="26" font-weight="bold" fill="#979797">
            <tspan x="1339.77197" y="993">DEVELOP THE PRODUCT</tspan>
        </text>
        <path d="M257,891 C342.333333,776.333333 487.333333,688.333333 692,627 C999,535 1341.64861,537.817606 1488,537" id="Path-2" stroke="#979797" stroke-width="5"></path>
        <circle id="Oval" stroke="#979797" stroke-width="5" cx="1487" cy="714" r="177"></circle>
        <circle id="Oval" fill="#979797" cx="257" cy="890" r="12"></circle>
        <circle id="Oval" fill="#979797" cx="646" cy="642" r="12"></circle>
        <circle id="Oval" fill="#979797" cx="960" cy="569" r="12"></circle>
        <circle id="Oval" fill="#979797" cx="1310" cy="540" r="12"></circle>
        <g id="Oval">
            <use stroke="#979797" stroke-width="21" fill="#979797" fill-rule="evenodd" xlink:href="#path-1"></use>
            <circle stroke="#FFFFFF" stroke-width="6" cx="1488" cy="537" r="15"></circle>
        </g>
        <g id="LABEL" transform="translate(192.000000, 774.000000)">
            <g>
                <rect id="Rectangle" fill="#979797" transform="translate(65.000000, 32.000000) scale(-1, 1) translate(-65.000000, -32.000000) " x="0" y="0" width="130" height="64"></rect>
                <text id="DEVELOP-THE-PRODUCT" font-family="Roboto-Bold, Roboto" font-size="26" font-weight="bold" fill="#FFFFFF">
                    <tspan x="16.25" y="40">INFORM</tspan>
                </text>
            </g>
        </g>
        <g id="LABEL" transform="translate(571.000000, 526.000000)">
            <g>
                <rect id="Rectangle" fill="#979797" transform="translate(75.000000, 32.000000) scale(-1, 1) translate(-75.000000, -32.000000) " x="0" y="0" width="150" height="64"></rect>
                <text id="DEVELOP-THE-PRODUCT" font-family="Roboto-Bold, Roboto" font-size="26" font-weight="bold" fill="#FFFFFF">
                    <tspan x="16.4619141" y="40">INSIGHTS</tspan>
                </text>
            </g>
        </g>
        <g id="LABEL" transform="translate(1234.000000, 424.000000)">
            <g>
                <rect id="Rectangle" fill="#979797" transform="translate(75.000000, 32.000000) scale(-1, 1) translate(-75.000000, -32.000000) " x="0" y="0" width="150" height="64"></rect>
                <text id="DEVELOP-THE-PRODUCT" font-family="Roboto-Bold, Roboto" font-size="26" font-weight="bold" fill="#FFFFFF">
                    <tspan x="16.09375" y="40">CONCEPT</tspan>
                </text>
            </g>
        </g>
        <g id="LABEL" transform="translate(1406.000000, 859.000000)">
            <g>
                <rect id="Rectangle" fill="#979797" transform="translate(81.500000, 32.000000) scale(-1, 1) translate(-81.500000, -32.000000) " x="0" y="0" width="163" height="64"></rect>
                <text id="DEVELOP-THE-PRODUCT" font-family="Roboto-Bold, Roboto" font-size="26" font-weight="bold" fill="#FFFFFF">
                    <tspan x="21.8955078" y="40">MEASURE</tspan>
                </text>
            </g>
        </g>
        <g id="LABEL" transform="translate(1253.000000, 682.000000)">
            <g>
                <rect id="Rectangle" fill="#979797" transform="translate(57.000000, 32.000000) scale(-1, 1) translate(-57.000000, -32.000000) " x="0" y="0" width="114" height="64"></rect>
                <text id="DEVELOP-THE-PRODUCT" font-family="Roboto-Bold, Roboto" font-size="26" font-weight="bold" fill="#FFFFFF">
                    <tspan x="16.4257812" y="40">LEARN</tspan>
                </text>
            </g>
        </g>
        <g id="LABEL" transform="translate(1611.000000, 682.000000)">
            <g>
                <rect id="Rectangle" fill="#979797" transform="translate(52.500000, 32.000000) scale(-1, 1) translate(-52.500000, -32.000000) " x="0" y="0" width="105" height="64"></rect>
                <text id="DEVELOP-THE-PRODUCT" font-family="Roboto-Bold, Roboto" font-size="26" font-weight="bold" fill="#FFFFFF">
                    <tspan x="16.3691406" y="40">BUILD</tspan>
                </text>
            </g>
        </g>
        <g id="LABEL" transform="translate(1412.000000, 424.000000)">
            <g>
                <rect id="Rectangle" fill="#979797" transform="translate(75.500000, 32.000000) scale(-1, 1) translate(-75.500000, -32.000000) " x="0" y="0" width="151" height="64"></rect>
                <text id="DEVELOP-THE-PRODUCT" font-family="Roboto-Bold, Roboto" font-size="26" font-weight="bold" fill="#FFFFFF">
                    <tspan x="16.2446289" y="40">VALIDATE</tspan>
                </text>
            </g>
        </g>
        <g id="LABEL" transform="translate(824.000000, 433.000000)">
            <g>
                <rect id="Rectangle" fill="#979797" transform="translate(136.000000, 42.000000) scale(-1, 1) translate(-136.000000, -42.000000) " x="0" y="0" width="272" height="84"></rect>
                <text id="DEVELOP-THE-PRODUCT" font-family="Roboto-Bold, Roboto" font-size="26" font-weight="bold" fill="#FFFFFF">
                    <tspan x="33.1933594" y="40">ASSUMPTIONS &amp; </tspan>
                    <tspan x="54.2993164" y="70">HYPOTHESES</tspan>
                </text>
            </g>
        </g>
        <polygon id="Rectangle" fill="#FFFFFF" points="1635 581 1640 618 1603 613"></polygon>
        <polygon id="Rectangle" fill="#FFFFFF" transform="translate(1601.500000, 848.500000) scale(-1, 1) translate(-1601.500000, -848.500000) " points="1615 830 1620 867 1583 862"></polygon>
        <polygon id="Rectangle" fill="#FFFFFF" transform="translate(1373.500000, 578.500000) scale(1, -1) translate(-1373.500000, -578.500000) " points="1387 560 1392 597 1355 592"></polygon>
        <polygon id="Rectangle" fill="#FFFFFF" transform="translate(1353.500000, 830.500000) scale(-1, -1) translate(-1353.500000, -830.500000) " points="1367 812 1372 849 1335 844"></polygon>
        <polygon id="Rectangle" fill="#979797" points="1625 571 1630 608 1593 603"></polygon>
        <polygon id="Rectangle" fill="#979797" transform="translate(1611.500000, 838.500000) scale(-1, 1) translate(-1611.500000, -838.500000) " points="1625 820 1630 857 1593 852"></polygon>
        <polygon id="Rectangle" fill="#979797" transform="translate(1363.500000, 588.500000) scale(1, -1) translate(-1363.500000, -588.500000) " points="1377 570 1382 607 1345 602"></polygon>
        <polygon id="Rectangle" fill="#979797" transform="translate(1363.500000, 840.500000) scale(-1, -1) translate(-1363.500000, -840.500000) " points="1377 822 1382 859 1345 854"></polygon>
    </g>
</svg>